<svg xmlns="http://www.w3.org/2000/svg" viewBox="0 0 1000 300"><defs><style>.cls-1{fill:#231f20;}</style></defs><title>Artboard 1</title><g id="Layer_6_copy" data-name="Layer 6 copy"><path class="cls-1" d="M388.07,231.78c3.37-.39,4.11-1.05,4.2-1.57.16-.89-1.61-1.45-2.26-3.22a5.54,5.54,0,0,1,.6-4.32c-2.61-.94-5.31-2-8.09-3.19-4.1-1.76-7.87-3.61-11.34-5.47-1.38,3.89-2.66,4.52-2.95,7.22-.25,2.37.34,5.6,1.85,6.87.6-.12,1.25-.28,2-.48.93-.26,2-.59,3.17-1a12.53,12.53,0,0,0,2.22-3.46c-.18,1-.4,2-.63,2.85a46.19,46.19,0,0,0,7-3.56c-2.79,2.36-5.39,4.3-7.7,5.91a33.66,33.66,0,0,1-1.85,4.5c-1.16,2.31-2.32,3.94-1.63,5.22.85,1.56,3.84,1.46,4.79,1.43a10.48,10.48,0,0,0,5.53-1.86c-2.57,2.63-2.89,3.52-2.67,3.83s1.35-.37,2.95-.2c2.3.24,2.9,2.1,4.66,2.67a2,2,0,0,0,1.54-.45c1.27-1.17-.31-3,1-5.81.93-2,2.4-2.4,2.25-3.45C392.58,233.47,391.68,232.54,388.07,231.78Z"/><path class="cls-1" d="M400.55,287.34c-.33.53.23,1.89,4.08,5.52.7-1.46,1.42-2.86,2.12-4.14a8,8,0,0,0,.3-1.55C404.76,288.41,401.17,286.36,400.55,287.34Z"/><path class="cls-1" d="M622,65.22c.41-1.2,2.53-1,2.68-1.85.28-1.48-6.61-3.93-9.46-5l-.12,0a40.37,40.37,0,0,0-2.06,8.19c-.32,2.68-.83,7,.84,7.74,1.47.68,3.92-1.62,4.93-2.65-1-1-1.75-1.82-2.32-2.48,6.34,1.89,8.41,2,8.68,1.36C625.62,69.52,621.38,67.06,622,65.22Z"/><path class="cls-1" d="M613.66,57.72A80.56,80.56,0,0,1,605.89,54a15.42,15.42,0,0,1,1.12,2.1l4,7Z"/><path class="cls-1" d="M665.43,147.84a23.17,23.17,0,0,0-6.83-4.92c-.24.64-.49,1.3-.73,2-.54,1.61-.76,2-.85,1.94s.17-1.89.28-4.46a24.33,24.33,0,0,1-3.58-1.5c-.69,1.77-1.52,4.09-2.53,7.15l-.63,2.48C653.44,150.61,658,150,665.43,147.84Z"/><path class="cls-1" d="M620.38,73.08c-.53-.48-1-.94-1.45-1.39L614.1,82.93l-.12.35a28.21,28.21,0,0,0,6.79-2.58c2-1.08,3.35-2.19,3.34-3.46S622.82,75.31,620.38,73.08Z"/><path class="cls-1" d="M218.35,50.2a2.31,2.31,0,0,0,2.14.24A25,25,0,0,0,218,49.39,1.48,1.48,0,0,0,218.35,50.2Z"/><path class="cls-1" d="M213,40.42c.43,1.74.15,2.35.57,2.61,1,.63,4.14-1.87,6.22-4.39,1.15-1.4,1.66-2.43,3.19-3.38a8.07,8.07,0,0,1,1.63-.77,9.3,9.3,0,0,0-2.86-2,51.13,51.13,0,0,0,5,1.42q.42-.15.93-.38c-1.37-1.13-7.66-4.2-17.49-9.6l-.66,6.51a42.23,42.23,0,0,0,2.42,7.26A12.83,12.83,0,0,1,213,40.42Z"/><path class="cls-1" d="M221.66,59.43c-.65.36-1.11.68-1.07,1.06.05.59,1.25,1.28,6.29,1.7a6.45,6.45,0,0,0-3.73,3.9,6.2,6.2,0,0,0,.49,4.76,5.85,5.85,0,0,0,4.06,2.68,9.9,9.9,0,0,1,3-.07,7.35,7.35,0,0,1-3,.07,7.82,7.82,0,0,0-4.79,2.65c-1.4,1.69-2.64,4.69-1.53,6.61,1.25,2.17,4.24,2.6,7.65,3,0,0,1.12.13,7.06.09,0,0-1.65,2.15-1.59,3.88,1.8-2.44,3.35-4.68,2.58-6.46a3.91,3.91,0,0,0-1.47-1.59,5.25,5.25,0,0,0-4.39-.33c3.7-5.94,4.7-8,4.43-8.21s-1,1.1-2,.91c-1.21-.25-2.27-2.84-1.58-4.75.59-1.6,2.14-2,2-2.86s-1.64-.74-2.64-1.87a4.86,4.86,0,0,1-.76-4,39.83,39.83,0,0,1-7.41-.82C222.71,59.69,222.17,59.56,221.66,59.43Z"/><path class="cls-1" d="M226.51,37.82a7.68,7.68,0,0,0-.53-1.34c-2.31,1.81-5.68,4.46-7.3,9-.11.3-.25.69-.38,1.13l.78,0c3.18-.21,4.92-.55,6.21-1.94C227.67,42.1,226.58,38,226.51,37.82Z"/><path class="cls-1" d="M886.29,68.18c-1.77-1.08-2.15-2.51-3.56-2.61-.91-.06-1.09.52-2,.71-2.46.51-3.69-2.85-6-3-2-.15-3.2,2.06-5.8,5.11,3.62,0,6.51-.06,8.91-.15a42.46,42.46,0,0,1,7.57.94c1.19.21,2.93.56,3.6,1.86.43.83.1,1.42.51,1.72.9.66,2.66-2,5.56-2.64-1-.14-2.8-.41-5.28-.89C887.43,68.74,886.89,68.55,886.29,68.18Z"/><path class="cls-1" d="M646.25,171a5.72,5.72,0,0,0,.93.61c2.09,1.06,4.22.48,10.11-1.44l3.24-1.07a64.4,64.4,0,0,0-9.26,1C649.47,170.41,647.8,170.72,646.25,171Z"/><path class="cls-1" d="M650.55,151.88h-.33l-3.8,15a41.93,41.93,0,0,1,.2-14.84,4.27,4.27,0,0,0-2.1,1.08c-1.38,1.34-1.43,3.56-1.53,8-.07,3.09-.09,4.68.74,6.51.1.21.23.5.4.82a21.22,21.22,0,0,1,5.69-2.49c5-1.34,8.5-.27,12.23-3.3.92-.75,3.56-2.9,3.15-5.58-.32-2.11-2.43-3.9-5.29-4.54,6.14,1.53,7.8,1.07,8.17.35s-.58-2.77-2.46-4.8C659.07,151.4,654,152,650.55,151.88Z"/><path class="cls-1" d="M710,101.08a10.26,10.26,0,0,0,2.78.08A12.43,12.43,0,0,0,710,101.08Z"/><path class="cls-1" d="M646.22,148.8a2.7,2.7,0,0,0,1,.93c1.36-5.28,2.05-7.95,2.22-8.3.47-1,1-2,1.31-2.91q-.27-.29-.51-.58C646.71,142.47,645,146.7,646.22,148.8Z"/><path class="cls-1" d="M642.47,134.74c.37-1.24.64-2.35.85-3.37a11.39,11.39,0,0,0-.22-1.12l.43,0c.72-4.36-.06-6.51-1.29-7.56-2.1-1.79-5.5-.41-6.75-2.27-1.09-1.63.27-4.51,1.9-7l-1.41,1c-1.9,4.81-4.37,9.4-4.37,9.4-2.73,1.67-3.52,3.15-3.55,4.35-.08,2.83,4.05,3.82,4.51,7.28s-3.28,5.5-2.52,6.64c1.08,1.64,10.45,0,12.82-6.14a8.49,8.49,0,0,0,.55-3.25C643.13,133.25,642.82,134,642.47,134.74Z"/><path class="cls-1" d="M-18.32-29V170.21c2,.62,4.44,1.13,4.82.4.25-.47-.37-1.47-2.43-3.29a6.48,6.48,0,0,1,2.43-.2c2.07.24,3.28,1.46,4.37,2.24,3.18,2.25,8.39,2.75,10,.89C2,168.83,1,166.12.41,164.4a13.72,13.72,0,0,0-2-3.58c-1-.35-2.31-2.29-2.53-2.6a15.25,15.25,0,0,1,2.53,2.6.65.65,0,0,0,.47,0c.87-.35.45-3.22.33-4.08-.38-2.61-1.68-7.05-6.74-12.27A88,88,0,0,1,3,152.69c2.08,1.89,3.86,3.71,5.39,3.19s2-3.27,2.17-4.6c-.32,3.68,1,5.6,1.55,6.28,2.54,3.15,7.25,2.9,12.69,2.6a10.46,10.46,0,0,0,4.9-1.15,9.81,9.81,0,0,0,4-4.37c-.91,1.94-1,3.71-.26,4.31,1.17.93,4.07-1.29,4.31-1.48,2.16-1.69,2.72-3.56,4.14-6.41,1.66-3.32,1.72-2.4,5-7.89,1.24-2.1,3-5.19,4.87-9.11a17,17,0,0,1-.89,6.48c-.91,2.6-2.16,3.95-2.73,7a15.12,15.12,0,0,0-.23,3.55c-2.65,1.27-4.26,3.64-4,5.89.29,3.1,3.91,4.57,4.34,4.73,2,.77,4.76.88,13.65-3.65a111.92,111.92,0,0,0,12.64-7.54c1.37-1,1.76-1.15,1.83-1.07s-1.63,1.78-3.46,4.28c-.75,1-3.16,4.31-2.62,4.92s2.74-.42,11.51-6.78L96.6,139.4c-3.52,6.73-7.11,10.52-9.8,12.76-4.74,3.94-7.1,5.91-7.46,6.12-2,1.15-4,1.92-4.41,3.75-.36,1.51.72,2.09.66,4-.1,3.15-3,5-2.66,5.49s2.05-.24,8.12-3.82c-6.19,4.8-7.38,7.89-6.87,9.93.66,2.68,4.22,3.55,4.14,5.79-.07,2-2.86,3.5-5.66,4.6,4.16.12,8.48.14,13,0,8.8-.21,17-.87,24.63-1.81-12.21,2.21-17,3.78-18.78,4.87a19,19,0,0,1-6.54,2.37l-.6.06s-7.36.58-8.74,3.85c-.76,1.81.94,2.93.79,6.25a11,11,0,0,1-1.91,5.52l5.59,3.88a9,9,0,0,0,.33,6.38c1.43,2.81,4.37,3.56,7.73,5.26a35,35,0,0,1,10.26,8c-2-.94-4.82-2.29-8.32-3.85-3.71-1.65-11.82-5.23-12.23-4.47-.15.27.85.86,2.31,2.7a19.85,19.85,0,0,1,2.2,3.48c-7-4.77-12.36-6-15.26-6.35-2.23-.28-4-.18-4.74.86s-.08,2.32.59,5.56a48.21,48.21,0,0,1,.82,5.49c-4-5.24-5.68-6.5-6.25-6.18-.91.52,1.09,5-.49,6.12-1,.74-2.66-.63-3.26-.07-1.1,1,3.07,7.05,4.74,9.6a84.15,84.15,0,0,1,9,18.58c-1.6-3.61-5.4-11.58-10.29-16-.94-.84-3.36-3-5.13-2.27-1.18.47-1.23,1.87-2.37,2.17-1.49.39-3.21-1.53-4.28-2.76-3.63-4.16-3.38-7.27-5.43-7.66s-3.5,2.15-4.83,1.38c-1.06-.61-.66-2.55-1.55-2.8-.71-.19-1.16,1-2.5,1.71-2,1.11-3.57-.1-5.62.36-1.28.29-3,1.27-4.67,4.57.05-2.1-.09-4.54-1.15-4.9-1.35-.46-3.55,2.71-6.12,6.48C9.4,250.71,5.79,256,2.92,260.29l12-28.58a10.17,10.17,0,0,1-4.47,3.52C6,236.91,2.83,234-1.95,234.54c-3.54.37-5.42,2.35-10.13,6.38-1.73,1.48-3.82,3.21-6.25,5.13v112.3H1050V-29ZM144.2,89.65a8,8,0,0,0-6.61-1.12c-.64.18,5.53-2.1,5.47-2.61s-9.22.29-22.23,1.92a31.44,31.44,0,0,1,5-1.58c3.73-.83,5.88-1.22,5.88-1.22,1.42-.25,2.47-.41,3.36-1.29s.59-1.19,1.27-2c1.57-1.95,4.32-1.82,4.3-2.2s-2.26-.4-3.87-.54a31.42,31.42,0,0,1-7.88-1.72c4-.5,10.79-1.8,16.44-5.54a9.6,9.6,0,0,0,3.79-4c1.29-2.85.49-5.73-.14-8a19,19,0,0,0-3.07-6.22,7.68,7.68,0,0,1-.92-1.16c.33.39.64.77.92,1.16a6.19,6.19,0,0,0,4.56,2.07c.35,0,2.6-.06,3.45-1.42s.11-4-2.2-6.28a3.72,3.72,0,0,1-1.36-1.21,13.37,13.37,0,0,1,1.36,1.21,2.55,2.55,0,0,0,1,.27,3.68,3.68,0,0,0,2.84-1.61c2.12-2.6.92-6.5.75-7.06a9.72,9.72,0,0,0-3-4.52,5.5,5.5,0,0,0,3.14-3.87,4.32,4.32,0,0,0-1.13-3.88c-1.67-1.42-4,0-8,.15A18.78,18.78,0,0,1,139.8,26c11.35.42,14.74-1.79,15.69-3.95a4.52,4.52,0,0,0,.33-2.07c-.27-.59-.6-1.27-1-2.12-1.4-2.92-2.65-5.28-3.55-6.91,0,0,4.35,5,4.55,9,.43.93.73,1.62,1,2.32,1.64,4.55.8,5.79,2.22,8.16s4.23,4.68,6.18,3.86c1.74-.73,2.72-4,1.82-7.89a33.17,33.17,0,0,1,3.11,9.08c.44,2.4.49,4.3,1.73,4.84,1.51.66,3.7-1.19,4.4-1.77a10.3,10.3,0,0,0,3.09-4.65c-.44,3.48-.18,4.33.16,4.43s.8-1.07,2.09-1.89c1.88-1.2,3.4-.11,5.06-.79.87-.35,2.07-1.3,3.32-6.2a43.43,43.43,0,0,0,1.31-12.17,94.26,94.26,0,0,1,1.48,14.27c.12,4.64-.14,8.3.76,8.49s2.14-2.58,3.2-5.12q2.14,3.17,4.16,3c2.8-.18,5.41-5.14,7.85-14.82l-1.45-.8c-3.54-2-6.42-3.64-8.32-4.74,3.71,1.26,6.81,2.35,9.17,3.19l1.08.39q1.27-5.41,2.47-12.57l-1.31,13a27.64,27.64,0,0,1,2.94,1.19c3.56,1.73,5.68,2.88,5.68,2.88,1.35.73,2.32,1.29,3.62,1.15,1.1-.12,1.25-.61,2.35-.87,2.54-.6,4.76,1.34,5,1s-1.63-1.84-2.89-3a34.38,34.38,0,0,1-5.49-6.68c3.66,2.24,10.15,5.65,17.23,6.25a9.8,9.8,0,0,0,5.72-.87c2.89-1.54,4-4.5,5-6.8a20.49,20.49,0,0,0,1.39-7.26,8.4,8.4,0,0,1,0-1.58c0,.55,0,1.07,0,1.58a6.81,6.81,0,0,0,2.49,4.77c.3.23,2.21,1.68,3.78,1.09s2.6-3.23,2.16-6.71a4.08,4.08,0,0,1-.38-1.95,14.88,14.88,0,0,1,.38,1.95,2.79,2.79,0,0,0,.66.87,3.82,3.82,0,0,0,3.39.52c3.42-.78,4.89-4.86,5.1-5.44a10.6,10.6,0,0,0,.34-5.81,9.16,9.16,0,0,0,5.08-1.16c2.18-1.29,3.26-3.37,5-8.23a118.38,118.38,0,0,0,3.51-12.14c-.29,2-.74,4.78-1.43,8.17-.52,2.54-.78,3.81-1.16,5-1.52,4.92-3,5.39-3.32,8.33-.3,2.78.56,6.74,2.71,7.35,1.91.54,4.83-1.58,6.52-5.43a35.44,35.44,0,0,1-3.17,9.7c-1.16,2.31-2.32,3.94-1.63,5.22.85,1.56,3.84,1.46,4.79,1.43a10.48,10.48,0,0,0,5.53-1.86c-2.57,2.63-2.89,3.52-2.67,3.83s1.35-.37,2.95-.2c2.33.24,2.91,2.16,4.73,2.7.95.28,2.55.28,6.71-3a44.83,44.83,0,0,0,8.81-9.37,98.86,98.86,0,0,1-7.82,13c-2.84,4-5.38,6.89-4.75,7.64s3.42-.75,5.92-2.19c-.1,1.74.05,4,1.54,5.32,2.27,2,6.12.36,12-.63a57.58,57.58,0,0,1,13.21-.67C319.67,35,316.31,37.55,316,39.07a12.89,12.89,0,0,1-.85,3c-.75,1.75-1.37,2.07-1.18,2.57.44,1.19,4.64,1.18,8,.43,1.85-.41,2.93-.94,4.8-.72a8.74,8.74,0,0,1,3.12,1c1.94,1,6.49,1.84,17.55,1.46-8.16.5-14.35.61-18.7.6-3.08,0-7.68-.07-12,2.75-1.11.72-3.48,2.26-3.25,3.72S317,56.41,321.35,57a20.76,20.76,0,0,1,6,.55c-2.12-.13-4.18-.3-6-.55a5,5,0,0,0-3.66,1.61c-1.31,1.64-.41,3.65-2,4.93-2.25,1.85-6.31-.58-7,.47-.33.53.23,1.91,4.17,5.61a6.6,6.6,0,0,0-5.59.8,6.09,6.09,0,0,0-.92,9.27,10.69,10.69,0,0,1,2.53,1.91,7.92,7.92,0,0,1-2.53-1.91,8.12,8.12,0,0,0-5.68-.95c-2.24.49-5.18,2.19-5.47,4.54s2.41,3,4.49,7.59c1.18,2.61.46,2.75,1.86,7.3a80.63,80.63,0,0,0,3.46,8.54l2.43,5.59a3.63,3.63,0,0,0,1.37-.29c1.68-.71,1.09-1.88,3.5-3.33,3.09-1.86,4.9-.44,8.24-2.25,1-.56,3.44-1.86,4-4.4a6.13,6.13,0,0,0-1-4.48,4.13,4.13,0,0,1-.41-.59c.09.12.24.32.41.59a3.48,3.48,0,0,0,3.25,1.35,3.52,3.52,0,0,0,2.59-2.44c.46-1.46-.49-2-.45-3.89.05-2.17,1.34-2.51,1.85-4.94.27-1.29.07-2-.41-5-.27-1.68-.63-4.11-1-7.13a92,92,0,0,0,5.25,12.54c2.6,5.1,4.13,6.88,5.62,6.78s1.67-2.31,4.08-3.12c.94-.32,2.88.08,6.7.88s4.32.91,5,.58c.89-.43,2.25-1.77,2.25-6.84,1.23,1.7,1.87,1.94,2.24,1.82.88-.28.5-2.78,1.1-6.54a35,35,0,0,1,1.4-5.4c.91-3,2.65-9.66,6.21-25-1.06,6.1-1.89,11.23-2.51,15.12-.79,5-1.25,8.05-.56,8.28.46.16,1.32-1,2.21-2.56.29-.57.6-1.15,1-1.74-.31.59-.63,1.19-1,1.74a28.32,28.32,0,0,0-2.52,7.1c-1.23,5.93-1.3,16,3.5,18.62,1.53.83,3.21.72,4.21,2.33,1.21,1.94,0,4.11,1,4.72,1.24.76,3.43-2.35,5.67-1.61,1.45.48,1.47,2.09,2.58,2.35s2.68-.68,5.67-5.95a26.57,26.57,0,0,1-3.57,7.11c-1.83,2.56-3.58,4-3.24,6,.21,1.25,1,1.34,1.6,3.13.72,2.33-.21,3.62.38,4.23s2.71.39,9.82-4.24c-.62.65-1.65,1.67-3,2.86-3.62,3.19-5.5,3.94-5.3,4.86.27,1.22,3.93,1.54,6.3,1.41s3.05-.77,4.9-1c3.64-.38,5.38,1.64,9.13,3,2.95,1.07,6.11.89,12.44.53a74.9,74.9,0,0,0,13.58-2,36.83,36.83,0,0,1-14.7,3.52c-3.66.06-8.16-.48-13.1,2a18.65,18.65,0,0,0-3.19,2.06h5.06a32.48,32.48,0,0,1-6,2.27c-5.27,1.42-6.68.35-9.41,1.82-3.75,2-6.75,7.07-5.28,10.53a5.81,5.81,0,0,0,2.76,2.76c-1.83,1.23-4,3.09-3.9,5.23.1,1.84,1.8,2.5,4.25,5.26,3,3.44,2.61,4.9,5.44,8.87a31.49,31.49,0,0,0,6.7,6.83,29.62,29.62,0,0,1-6.22-2.21c-7.27-3.55-8.42-7.86-13.31-8-2.36-.08-3.49.88-6.94.35-2.43-.37-2.71-1-4.26-.8-2.71.3-2.89,2.24-6.45,3.62-2.79,1.08-3.61.24-4.9,1.41s-1.5,3.17-1.66,6.61a33,33,0,0,0,.42,6.92,11.09,11.09,0,0,1-2.85-5.42c-.12-.68-.2-1.57-.76-1.81-1-.41-2,1.6-3.17,1.32-1.49-.36-1-4.12-2.87-4.85a2.75,2.75,0,0,0-2.68.7c-.31.31-.45.65-1.1,2.66-1-2.49-1-2.68-1.15-3.13-.49-1.82-.23-2.33-.64-2.57-.89-.52-3,1.36-4.29,2.8A15.36,15.36,0,0,0,334,182a30.09,30.09,0,0,1-.88-3.89c-.28-1.81-.24-2.6-.87-3.16a3.5,3.5,0,0,0-3.29-.24c-1.66.6-2.63,2.51-4.5,6.3-3.29,6.68-3.43,7-3.78,7.77-.55,1.26-1,2.43-1.47,3.48s-.79,2.06-1.25,3.15c.33-.85.75-1.92,1.25-3.15a69.66,69.66,0,0,0,2.82-9.53c.75-3.46.43-3.32,1.08-5.54,1.84-6.28,4.92-9.23,3.58-11.89-.09-.18-.59-1.16-1.44-1.3s-2.18.89-3,2.65a6,6,0,0,0-.47-3.66c-1.7-3.39-7.36-4.92-14-3.25a18.64,18.64,0,0,0,4.66-2.76,18.39,18.39,0,0,0,1.68-1.54c-.86-1.44-2.12-3.44-3.76-5.76-3.13-4.4-4.69-6.59-7.24-8.56a24.41,24.41,0,0,0-9.91-4.42,24.78,24.78,0,0,0-8.58-.21l-1.51.27c.43-.09.95-.18,1.51-.27,1.94-.36,4.44-.89,7.35-1.67a30.36,30.36,0,0,1,3.16-.87c4.58-.57,8.37,2,11.59,1,.35-.11.78-.28.89-.63.19-.6-.64-1.41-2.47-2.87-1-.8-2.42-1.89-4.2-3.12,6,3.06,7.42,2,7.78,1.63,1.82-1.82-1.85-8.25-3.62-11.35-2.1-3.68-3.44-6-6.23-8.19s-4.69-2.2-10-5.44c-2.12-1.3-3.78-2.5-4.87-3.33a45.88,45.88,0,0,1,9.33,3.31c6.21,3,10,6.57,13.11,7.22-1-1.34-1.71-2.51-2.24-3.4-3.93-6.64-4.16-11.16-7.84-12.56a31.69,31.69,0,0,0-4.15-1.13c-2.61-.54-3-.3-3.88-.88-2-1.36-1.15-3.74-2.73-4.5s-2.71,1.4-5.76,1.24c-2.23-.12-3.11-1.35-4-.82-.65.38-1.19,1.56-.57,5.19-1.6-3-2.49-3.44-3-3.33-.88.18-.76,2-2.16,3.29a5.54,5.54,0,0,1-4.24,1c.09,2.77.1,5.67,0,8.7a145.23,145.23,0,0,1-1.21,15,59.7,59.7,0,0,0-.82-14.26c-.34-1.87-1.35-7.43-2.56-7.41-.77,0-1.37,2.32-1.76,4.38-.75-7.46-2.82-12.86-5.38-13.12a4.49,4.49,0,0,0-2.25.65,11,11,0,0,0-5,4.85c1.52-5.49,1.5-7.36.92-7.62-1-.47-3.69,4.1-5.48,3.44-1.16-.42-.8-2.6-1.78-2.9s-2.3,1.61-4,4.09l1.23.78a43.15,43.15,0,0,1,4.72,3.56,42.39,42.39,0,0,0-6.42-3.67c-.54.76-1.12,1.55-1.74,2.35a43.55,43.55,0,0,1-6.84,7,49,49,0,0,1,5.55-10.37,6.16,6.16,0,0,0-3.51,0c-2.25.86-3.75,1.61-3.75,1.61-2.26,1.14-2.45,1.57-3.4,1.64-2.16.16-3-2.12-4.59-1.73A3.19,3.19,0,0,0,215.72,96c-.18,2.29,2.88,3.88,6.09,6.23a47.3,47.3,0,0,1,9,8.74c-3.07-2.94-14-13.21-18.29-12.55-.42.06-1.53.22-1.83,1s0,1.86,2.5,4.19c-2.89-1.27-3.81-1.08-4.13-.7-.56.66.58,2,.24,3.72a5.44,5.44,0,0,1-2.59,3.27c1.63,2,3.28,4.16,4.93,6.46a133.43,133.43,0,0,1,7.58,11.88,54.41,54.41,0,0,0-8.68-10.12c-1.31-1.19-5.21-4.72-6.1-4-.57.47.29,2.53,1.16,4.3-4.78-5.1-9.38-7.9-11.44-6.57a4.41,4.41,0,0,0-1.31,1.81,10.7,10.7,0,0,0-1,6.54c-2-5-3-6.36-3.62-6.21-1,.26-.45,5.23-2.16,5.8-1.1.37-2.07-1.46-3-1.1-1.25.5-.59,4.49-.67,9a42.25,42.25,0,0,1-1.19,9.23,46.51,46.51,0,0,1-1.71-11c-.11-3.71.24-7.52-1.75-8.62a3.59,3.59,0,0,0-2-.31,5.09,5.09,0,0,0-3.47,2.34c.15-1.24.9-7.91-1.32-8.72-.82-.3-1.95.24-3.61,1.79a29.94,29.94,0,0,0-5,6.26c-1.43,3.34-3.32,7.51-5.76,12.65a65,65,0,0,1,5.76-12.65c3.65-8.5,4.35-11.67,3.61-12.09-.47-.27-1.46.45-3,.17a4.42,4.42,0,0,1-2.82-2.51,38.57,38.57,0,0,1-6,3.77,38.05,38.05,0,0,1-5.64,2.31q3.59-5.56,2.31-7.21-2.11-2.73-17.53,5.23a71.42,71.42,0,0,0,10.28-7.69c2.26-2,3.38-3.32,3.56-5.11C147.49,92.15,144.38,89.78,144.2,89.65ZM242.91,187c-.53-1.34-2.32-1.16-3.36-3-.61-1.09-.29-1.69-.65-3.13a8.89,8.89,0,0,0-3-4.51c.82.37,2.1,1,3.65,1.77,1.86,1,2.29,1.28,3,1.14,1.46-.29,2.53-2.32,2.48-4a4.87,4.87,0,0,0-.4-1.61,28.86,28.86,0,0,1-1.26-5,18.86,18.86,0,0,0,4,7.62,18.66,18.66,0,0,0,8.63,5.56,18.32,18.32,0,0,0,8.68.38c-.49.19-4.2,1.71-4.1,3.66a2.7,2.7,0,0,0,1.28,1.82,47.18,47.18,0,0,0,12.68,6.12s2.7.79,11.45,5.9c-10.46-5-15.65-5.57-15.65-5.57s-2.21-.22-6.32-1c-2.3-.45-2.84-.64-3.43-1-1.77-1.08-2.15-2.51-3.56-2.61-.91-.06-1.09.52-2,.71-2.46.51-3.69-2.85-6-3s-3.79,3.38-8.16,7.67a35,35,0,0,1-6.67,5.12c3.07-3.44,5.41-6.4,7.09-8.64C242.29,189.82,243.42,188.25,242.91,187Zm19.67,83.47a35.44,35.44,0,0,1-10.16-1c-2.51-.62-4.35-1.4-5.45-.44-1.34,1.17-.58,4.07-.35,5a10.48,10.48,0,0,0,3,5c-3.13-1.93-4.07-2.05-4.32-1.77s.65,1.24.84,2.83c.27,2.33-1.47,3.31-1.6,5.2-.06,1,.29,2.55,4.4,5.89A44.83,44.83,0,0,0,260,297.68a98.87,98.87,0,0,1-14.38-4.79c-4.51-1.9-7.9-3.74-8.49-3s1.48,3.18,3.43,5.3c-1.72.28-3.91.93-4.85,2.67-1.43,2.65,1,6,3.23,11.53a57.58,57.58,0,0,1,3.55,12.74c-6.9-10.86-10.08-13.59-11.64-13.58a12.89,12.89,0,0,1-3.09-.18c-1.87-.35-2.32-.88-2.77-.59-1.07.69-.14,4.79,1.33,7.88.81,1.71,1.56,2.65,1.76,4.53a8.74,8.74,0,0,1-.29,3.26c-.55,2.11-.38,6.73,2.42,17.45-2.28-7.85-3.73-13.87-4.68-18.12-.67-3-1.61-7.51-5.32-11.12-.94-.92-3-2.9-4.34-2.36s-1.72,4-1.32,8.42a20.75,20.75,0,0,1,.79,6c-.34-2.1-.62-4.14-.79-6a5,5,0,0,0-2.37-3.22c-1.89-.92-3.65.4-5.24-.84-2.3-1.79-.82-6.29-2-6.7-.59-.21-1.81.64-4.56,5.3a6.6,6.6,0,0,0-2-5.28,6.09,6.09,0,0,0-9.25,1.13,10.69,10.69,0,0,1-1.31,2.88,7.92,7.92,0,0,1,1.31-2.88,8.11,8.11,0,0,0-.32-5.75c-1-2.08-3.27-4.57-5.63-4.34s-2.4,3-6.43,6c-2.29,1.72-2.59,1.05-6.72,3.41a80.66,80.66,0,0,0-7.57,5.24L155.28,318a43.44,43.44,0,0,1,5-5.63c5.62-5.28,10-6.5,10.54-10.4a31.68,31.68,0,0,0,.2-4.3c0-2.67-.37-3,0-4,.89-2.24,3.4-1.94,3.79-3.65s-2-2.34-2.47-5.35c-.37-2.2.64-3.33-.08-4.12-.51-.55-1.78-.82-5.19.58,2.56-2.21,2.81-3.18,2.59-3.66-.37-.82-2.15-.29-3.68-1.39a5.54,5.54,0,0,1-1.93-3.91c-2.68.69-5.52,1.34-8.49,1.92a145.22,145.22,0,0,1-14.91,2.11,59.7,59.7,0,0,0,13.74-3.93c1.75-.74,7-2.95,6.67-4.12-.18-.75-2.56-.82-4.66-.76,7.12-2.37,11.93-5.56,11.62-8.12a4.49,4.49,0,0,0-1.13-2,11,11,0,0,0-5.82-3.78c5.69.28,7.51-.14,7.64-.77.23-1.11-4.81-2.7-4.56-4.59.16-1.22,2.36-1.35,2.44-2.37.1-1.42-4-2.52-8.31-4.55a43.55,43.55,0,0,1-8.3-5.15,49,49,0,0,1,11.38,3.16c3.61,1.51,7.1,3.51,9.08,2.07a3.91,3.91,0,0,0,1.23-1.79,5.25,5.25,0,0,0-.63-4.35c6.61,2.31,8.85,2.83,9,2.53s-1.3-.77-1.32-1.73c0-1.24,2.27-2.84,4.29-2.58,1.69.22,2.4,1.65,3.22,1.29s.37-1.76,1.24-3a4.86,4.86,0,0,1,3.72-1.61,39.8,39.8,0,0,1-.41-13.83q3.67,5.86,5.84,5.35,3.6-.84,3.13-19.1a73.36,73.36,0,0,0,2.59,13.21c.9,3.05,1.62,4.69,3.25,5.64,3,1.75,6.73-.21,6.94-.32a8.69,8.69,0,0,0,4.15-5.86c-.47,5.21-.29,6.33,0,6.38.71.13,2.51-8.25,6.78-22.65,1.15-3.89,2.14-7.07,2.81-9.16-.42,3.89-.8,7.16-1.1,9.65a48.24,48.24,0,0,1-.82,5.49c-.91,3.86-1.56,6.17-1.56,6.17-.42,1.48-.75,2.55-.33,3.79.36,1,.87,1.08,1.36,2.1,1.14,2.35-.26,4.94.12,5.09s1.44-2,2.31-3.48a34.39,34.39,0,0,1,5.32-6.82c-1.38,4.06-3.29,11.14-2.33,18.18a9.8,9.8,0,0,0,2.1,5.39c2.14,2.48,5.27,3,7.72,3.34a20.49,20.49,0,0,0,7.39-.24,8.4,8.4,0,0,1,1.54-.38c-.53.15-1,.28-1.54.38a6.81,6.81,0,0,0-4.11,3.47c-.16.34-1.16,2.52-.24,3.93s3.73,1.83,7,.64a4.08,4.08,0,0,1,1.82-.8,14.87,14.87,0,0,1-1.82.8,2.79,2.79,0,0,0-.7.83,3.82,3.82,0,0,0,.23,3.42c1.51,3.16,5.81,3.71,6.42,3.79a10.6,10.6,0,0,0,5.75-.94,9.16,9.16,0,0,0,2.25,4.7c1.74,1.84,4,2.45,9.11,3a118.4,118.4,0,0,0,12.61.77c-2,.15-4.83.33-8.28.39-2.59.05-3.89.08-5.18,0-5.13-.41-5.92-1.75-8.86-1.42-2.77.32-6.45,2-6.58,4.26C255.74,267.23,258.45,269.61,262.57,270.43ZM489,277.8c-2.17-1.42-3.26-2.13-4.27-2.93-4-3.22-3.91-4.78-6.53-6.15s-6.47-2-7.83-.18c-1.21,1.58-.31,5.07,2.65,8.06a35.44,35.44,0,0,1-7.85-6.52c-1.72-1.93-2.81-3.61-4.25-3.43-1.76.21-2.77,3-3.09,3.93a10.48,10.48,0,0,0-.3,5.83c-1.5-3.36-2.21-4-2.58-3.89s-.16,1.39-.9,2.81c-1.08,2.08-3.08,1.91-4.25,3.4-.61.78-1.19,2.27.33,7.34a44.83,44.83,0,0,0,5.47,11.64,98.87,98.87,0,0,1-9.19-12.05c-2.65-4.11-4.42-7.54-5.36-7.23s-.56,3.46-.15,6.31c-1.58-.73-3.76-1.43-5.51-.52-2.67,1.38-2.59,5.56-3.81,11.35a57.58,57.58,0,0,1-4.24,12.53c.41-12.86-.68-16.91-2-17.77a12.88,12.88,0,0,1-2.46-1.89c-1.35-1.34-1.42-2-2-2-1.27,0-2.81,3.88-3.34,7.26-.29,1.87-.2,3.07-1.09,4.73a8.74,8.74,0,0,1-2.08,2.53c-1.64,1.43-4.1,5.35-7.82,15.78,2.53-7.77,4.72-13.57,6.33-17.61,1.14-2.86,2.89-7.11,1.86-12.19-.26-1.29-.83-4.07-2.27-4.39s-3.67,2.35-5.82,6.22a20.76,20.76,0,0,1-2.73,5.42l.58-1.23a6.57,6.57,0,0,0-5.47.84,6.09,6.09,0,0,0-.92,9.27,10.69,10.69,0,0,1,2.53,1.91,7.92,7.92,0,0,1-2.53-1.91,8.11,8.11,0,0,0-5.68-.95c-2.24.49-5.18,2.19-5.47,4.54s2.41,3,4.49,7.59c1.18,2.61.46,2.75,1.86,7.3a80.65,80.65,0,0,0,3.46,8.54c1.33,3.07,2.53,5.83,3.57,8.21a43.44,43.44,0,0,1-4.4-6.13c-3.93-6.64-4.16-11.16-7.84-12.56a31.68,31.68,0,0,0-4.15-1.13c-2.61-.54-3-.3-3.88-.88-2-1.36-1.15-3.74-2.73-4.5s-2.71,1.4-5.76,1.24c-2.23-.12-3.11-1.35-4-.82-.65.38-1.19,1.56-.57,5.19-1.6-3-2.49-3.44-3-3.33-.88.18-.76,2-2.16,3.29a5.54,5.54,0,0,1-4.24,1c.09,2.77.1,5.67,0,8.7a145.22,145.22,0,0,1-1.21,15,59.7,59.7,0,0,0-.82-14.26c-.34-1.87-1.35-7.43-2.56-7.41-.77,0-1.37,2.32-1.76,4.38-.75-7.46-2.82-12.86-5.38-13.12a4.49,4.49,0,0,0-2.25.65,10.72,10.72,0,0,0-4.37,3.86c0,.68,0,1.34,0,2-.15-.47-.28-.92-.4-1.36l-.21.37.15-.57a43.1,43.1,0,0,1-1.19-5.76c-1.14,1.14-2.48,2.53-3.53,2.15s-.8-2.6-1.78-2.9c-1.36-.41-3.34,3.38-6.26,7.11a43.55,43.55,0,0,1-6.84,7A49,49,0,0,1,324.88,315c2.26-3.2,5-6.16,4-8.41a3.91,3.91,0,0,0-1.47-1.59,5.25,5.25,0,0,0-4.39-.33c3.7-5.94,4.7-8,4.43-8.21s-1,1.1-2,.91c-1.21-.25-2.27-2.84-1.58-4.75.59-1.6,2.14-2,2-2.86s-1.64-.74-2.64-1.87a3.4,3.4,0,0,1-.78-1.71l-.19-.08c-2-1-2.34-2.46-3.39-2.33-.75.09-1.7,1-2.55,4.55-.31-3.37-1-4.14-1.47-4.24-.88-.18-1.49,1.57-3.27,2.18a5.54,5.54,0,0,1-4.3-.7c-1,2.58-2.12,5.26-3.38,8a145.21,145.21,0,0,1-7,13.35,59.7,59.7,0,0,0,4.81-13.45c.42-1.85,1.65-7.37.54-7.82-.72-.29-2.16,1.6-3.33,3.35,2.22-7.16,2.43-12.94.17-14.17a4.49,4.49,0,0,0-2.32-.28,11,11,0,0,0-6.46,2.53c3.54-4.47,4.26-6.19,3.82-6.66-.77-.84-5,2.33-6.39,1-.9-.84.28-2.71-.51-3.36-1.09-.91-4.4,1.81-8.54,4.1a43.55,43.55,0,0,1-9,3.74,49,49,0,0,1,9.19-7.41c3.33-2.06,7-3.73,7-6.18a3.91,3.91,0,0,0-.74-2,5.25,5.25,0,0,0-3.91-2c5.73-4,7.46-5.54,7.28-5.83s-1.38.6-2.17.06c-1-.7-1-3.5.4-5,1.17-1.25,2.74-1,2.92-1.86s-1.22-1.33-1.7-2.75a4.86,4.86,0,0,1,.86-4,39.8,39.8,0,0,1-11.48-7.72q6.9.43,7.75-1.63,1.41-3.42-13.7-13.66a73.36,73.36,0,0,0,12.25,5.59c3,1,4.75,1.42,6.48.64,3.18-1.43,3.75-5.59,3.78-5.83a8.69,8.69,0,0,0-2.35-6.79c4,3.41,5,3.93,5.16,3.75.51-.5-5.24-6.85-14.46-18.71-2.49-3.2-4.49-5.86-5.81-7.62,2.92,2.6,5.36,4.82,7.2,6.52a48.24,48.24,0,0,1,4,3.86c2.61,3,4.11,4.87,4.11,4.87,1,1.2,1.63,2.09,2.89,2.47,1.06.32,1.39-.07,2.5.12,2.57.44,3.86,3.09,4.2,2.87s-.79-2.33-1.48-3.91a34.38,34.38,0,0,1-2.44-8.29c2.5,3.49,7.14,9.16,13.42,12.48a9.8,9.8,0,0,0,5.6,1.43c3.26-.29,5.48-2.56,7.21-4.33a20.49,20.49,0,0,0,4.11-6.15,8.4,8.4,0,0,1,.59-1.47c-.18.52-.38,1-.59,1.47a6.81,6.81,0,0,0,.43,5.36c.19.33,1.38,2.41,3.05,2.48s3.66-2,4.61-5.33a4.08,4.08,0,0,1,.41-1.94,14.89,14.89,0,0,1-.41,1.94,2.79,2.79,0,0,0,.27,1.06,3.82,3.82,0,0,0,2.92,1.81c3.45.61,6.4-2.56,6.82-3a10.6,10.6,0,0,0,2.58-5.22,9.16,9.16,0,0,0,5.13.91c2.51-.34,4.32-1.83,7.78-5.64a118.39,118.39,0,0,0,8-9.8c-1,1.7-2.55,4.11-4.5,7-1.47,2.14-2.2,3.21-3,4.19-3.32,3.93-4.87,3.79-6.31,6.37s-2.11,6.42-.37,7.82c1.55,1.24,5.06.43,8.13-2.45a35.44,35.44,0,0,1-6.71,7.69c-2,1.67-3.68,2.72-3.53,4.17.17,1.77,3,2.84,3.85,3.19a10.48,10.48,0,0,0,5.82.44c-3.39,1.42-4,2.11-4,2.48s1,.26,2.18.69a11.52,11.52,0,0,0-.24-2,9.16,9.16,0,0,0,5.08-1.16c1.92-1.14,3-2.9,4.39-6.65l-1-.57,1.08.48c.17-.47.35-1,.53-1.49a118.38,118.38,0,0,0,3.51-12.13c-.29,2-.74,4.78-1.43,8.17-.52,2.54-.78,3.81-1.16,5-.1.33-.2.63-.3.92a59,59,0,0,0,11.33,3.5c1.86.37,7.41,1.48,7.83.35.27-.72-1.66-2.12-3.43-3.25,7.21,2,13,2.11,14.17-.17a4.49,4.49,0,0,0,.22-2.33,11,11,0,0,0-2.69-6.4c4.55,3.43,6.29,4.1,6.75,3.66.82-.79-2.45-4.94-1.19-6.36.82-.92,2.71.22,3.35-.59.88-1.12-1.91-4.35-4.31-8.44a43.55,43.55,0,0,1-4-8.93,49,49,0,0,1,7.63,9c2.14,3.28,3.9,6.9,6.34,6.82a3.91,3.91,0,0,0,2-.79,5.25,5.25,0,0,0,1.93-4c4.16,5.63,5.72,7.32,6,7.14s-.64-1.37-.12-2.17c.68-1,3.48-1.07,5,.28,1.28,1.14,1.05,2.72,1.93,2.88s1.3-1.25,2.71-1.77a4.86,4.86,0,0,1,4,.76,39.8,39.8,0,0,1,7.44-11.66q-.26,6.91,1.82,7.71,3.45,1.33,13.33-14a73.36,73.36,0,0,0-5.29,12.38c-1,3-1.3,4.78-.48,6.49,1.5,3.14,5.68,3.61,5.92,3.64a8.69,8.69,0,0,0,6.73-2.51c-3.32,4-3.81,5.07-3.62,5.25.52.5,6.72-5.41,18.35-14.91,3.14-2.56,5.75-4.64,7.47-6-2.53,3-4.69,5.47-6.34,7.35a48.24,48.24,0,0,1-3.76,4.08c-2.92,2.68-4.77,4.22-4.77,4.22-1.17,1-2.05,1.68-2.4,2.95-.3,1.07.11,1.38-.06,2.5-.38,2.58-3,3.93-2.77,4.27s2.31-.84,3.87-1.58a34.38,34.38,0,0,1,8.23-2.64c-3.43,2.58-9,7.36-12.16,13.72a9.8,9.8,0,0,0-1.3,5.64c.37,3.25,2.69,5.42,4.5,7.11a20.49,20.49,0,0,0,6.24,4,8.4,8.4,0,0,1,1.49.55c-.52-.17-1-.36-1.49-.55a6.81,6.81,0,0,0-5.35.56c-.32.2-2.38,1.44-2.41,3.11s2,3.61,5.44,4.48a4.07,4.07,0,0,1,1.95.36,14.88,14.88,0,0,1-1.95-.36,2.79,2.79,0,0,0-1.05.29,3.82,3.82,0,0,0-1.74,3c-.53,3.47,2.72,6.33,3.18,6.74a10.6,10.6,0,0,0,5.28,2.46,9.16,9.16,0,0,0-.79,5.15c.4,2.5,1.93,4.27,5.82,7.64a118.41,118.41,0,0,0,10,7.73C494.38,281.14,491.93,279.68,489,277.8ZM749.54,155.21q6.34,5,11.7,8.94a59.86,59.86,0,0,1-8.91-4.68c-4.11-2.62-6.07-4.58-7.95-3.92-.91.32-2.3,1.43-2.89,5.89a28,28,0,0,0,4.84,2.48,28.71,28.71,0,0,0,11.5,2c-2.28.79-4.1,1.37-5.34,1.76s-1.67.5-2,.95c0,0-.67.87.34,5.66,0-.09-.81-4.32-2.55-4.78-.86-.23-1.57.57-3,1.61a44.11,44.11,0,0,1-6.24,3.28c-4.41,2.12-6.62,3.18-9.47,3.32-3.34.17-5.06-.9-6.54.36-1.27,1.09-1.28,3-1.3,3.89-.06,4.5-.41,11.5-.86,20.64.19-5.71-1.38-9.09-2.94-11.15-1.82-2.4-4.28-3.87-3.93-5.84s3.11-2.82,3.09-2.85a25,25,0,0,0-13.55,9.1c-5.22,7.28-4.08,15.74-3.67,18.16a35.86,35.86,0,0,1-2.45-7.25c-1.46-6.59.11-8.49-1-12.06-2-6.45-10.77-11.59-19.09-10.84a19.37,19.37,0,0,0-10.57,4.51c.28-1,2.65-10.31-1.85-14l0,0-2,1c-8,4-18.71,9.31-18,11.62.29,1,2.66,1.72,12.09.69a18.71,18.71,0,0,1,3.33-.4c-1.21.16-2.3.29-3.33.4-6,1.27-9.63,5.27-9.39,8.07.27,3.16,5.58,6.91,12.88,6.47-5.27.84-11.9,2.24-12,4.24,0,1.52,3.73,2.82,8.59,4.31,10.83,3.33,23,6.41,27.74,7.59l1.43.36.59.15-.59-.15-1.43-.36c-5.44-1.32-20.14-4.48-22.3-.34-1.11,2.13,1.38,5.65,3.62,8.26a42,42,0,0,0-5.81-2.86c-4-1.58-7.79-3.11-9.32-1.64s.77,4.45-1.11,7.05c-1.25,1.72-3,1.38-4.1,2.51-1.32,1.3-1.62,4.36,1.41,11.38a40.29,40.29,0,0,1,2.05,4.35c-.82-1.61-1.49-3-2.05-4.35-.18-.32-.35-.64-.54-1-2.19-3.75-5.22-9-8.27-8.69s-4.85,6.24-5.83,5.85c-.73-.29.16-3.64-.16-3.73s-3.18,4.73-3.28,10.88c-.08,5,1.73,5.39,1.87,11.13.08,3.2-.42,5.74-1.41,10.8-1.2,6.12-1.95,6.9-1.49,8.94.5,2.26,2.29,5.25,8.28,8.06q-7-1.56-8.84.84-3.47,4.55,11.72,23.33c-11-10.5-14.85-16.15-16.23-19.4,0-.08-1.27-3-3.09-6.88a40.24,40.24,0,0,0-3.05-5.94,7.76,7.76,0,0,0-4.38-2.46c-3.25,1.23-7.48.94-11.13.31,5.25-1,8.76-.89,11.13-.31a7.94,7.94,0,0,0,3.25-2.17c1.4-1.6,1-2.58,2.52-6.64,3.2-8.4,7.71-11.3,6.45-13.35-.91-1.48-4.14-1.39-6.1-.68,0,0-1.31.47-5.56,4.57l-1.93,6a30.67,30.67,0,0,0-.45-10.72c-.62-2.78-1.49-6.66-3.09-6.88-1.24-.17-3.3,1.82-6.85,11.87-.26.82-.48,1.4-.53,1.52.18-.53.36-1,.53-1.52.74-2.32,1.78-6.57,0-7.84-.47-.34-1.8-.94-5.56,1.17a36.19,36.19,0,0,0-10.2,9.15c-2.78,8-8,15.2-8.4,15s2.79-7.91,8.4-15c.09-.27.19-.53.28-.8.57-1.76,2.46-8,2.46-8l-4.26-1.22a8.15,8.15,0,0,0-1.19-6c-2.24-3-6.6-2.94-8.53-2.91-10.17.13-18.78,9.31-27.8,16.58a122.68,122.68,0,0,1-27.33,16.56,102.37,102.37,0,0,0,13.09-10.83,103.63,103.63,0,0,0,12-14c4.55-6.45,3.88-7.15,7-10.57,6.41-7,13-8.14,12.66-9.87-.23-1.17-3.53-2.25-17.82-1.59,7.6-3.8,11.58-4.78,13.81-4.78.13,0,.74,0,1.57,0,2.67-.13,5.19-.26,6.78-1.25,2.8-1.73,4-6.91,2.45-8.51-1.06-1.07-3.81-1-10.26,2.41a36.09,36.09,0,0,1-6.76,3.91C555.82,212.26,558,211,560,210a33.48,33.48,0,0,0,5-4.53c4.11-4.54,6.32-9.51,5.65-10-.43-.35-1.87,1.32-5.52,2.1-.59.13-1,.19-1.34.23a21.12,21.12,0,0,1-7.07-.34c-4.93-1-14.92,8.86-20.45,13.47a70.42,70.42,0,0,1-20.06,11.59c14.65-11.8,25.53-20.8,30.09-24.68a63.56,63.56,0,0,0,6.44-6.28,55.54,55.54,0,0,0,4.87-6.28c2.87-4.34,6.16-9.34,4.66-11.41s-6,1.09-9.4-1.47c-2.71-2.07-3.61-7-1.79-9.27s5.1-.14,9.69-2.74c.83-.47,4.47-2.54,4.45-5.32,0-3-4.16-5.07-6.32-5.81a12.5,12.5,0,0,0-6.14-.43,19.44,19.44,0,0,1-8.67,3.86,21.23,21.23,0,0,1,8.67-3.86,9.8,9.8,0,0,0,3.55-5.53c.64-3.2-.88-6-2.22-8.31-4.38-7.7-11.84-11.31-16-12.88a59.68,59.68,0,0,1,18.09,8.11c2.47,1.68,5.59,4.12,10.49,5.16a23.2,23.2,0,0,0,8.88.09c-1.44-4.22-3.6-10.42-6.36-17.95S564.62,105.19,565,105s3.18,5.65,8.57,15.05c2.68,4.68,5,8.45,6.53,10.94a200.72,200.72,0,0,0-7.6-58.53q7.73,26.66,10,26.2,1.71-.35.25-16.36a96,96,0,0,0,3.63,12c1.8,4.82,4,10.69,5.72,10.47.74-.1,1.85-1.38,2.43-9a54.87,54.87,0,0,0,2.32,10.65c.89,2.72.9,2,5,11,2.63,5.83,3.4,7.84,5.19,8.15,2,.35,2.94-1.87,5.54-1.63,2.23.2,3.54,2,4.45,2.76q.76-.94,1.34-1.71a45.35,45.35,0,0,0-1.42-8.25c1.2,2.82,2.49,4.17,3.54,4.83a18.62,18.62,0,0,1,3.86-5.6l.45-.4s5.64-4.77,4.84-8.23c-.44-1.92-2.47-1.83-4.29-4.61a11,11,0,0,1-1.68-5.6l-6.8.12A12.3,12.3,0,0,0,615.58,95,10.18,10.18,0,0,0,613,96.84a11.16,11.16,0,0,0-3.16,6.14,40.71,40.71,0,0,1,1.85,9.74,14.52,14.52,0,0,1-1.85-9.74c-.26-.81-.53-1.55-.79-2.21-1.33-3.37-2.82-5.74-3.1-8.6-.79.16-1.61.32-2.49.46a35,35,0,0,1-13-.51c2.14-.38,5.25-1,9-1.74,1.72-.36,4.33-.91,6.72-1.49a11.87,11.87,0,0,1,1.29-3.23,20,20,0,0,1-2.74-1.19c1.27,0,2.46-.12,3.58-.23A8,8,0,0,0,606.91,78a8.13,8.13,0,0,0-6.34-3.13,15.26,15.26,0,0,0,7.55-10.43,14.51,14.51,0,0,0-1.1-8.33L605.79,54A90,90,0,0,1,597,48.56c3.41,2,11.15,6.24,17.69,6.95h0l3.3-6.6c-.42,1.39-1.14,3.75-2.08,6.7,1.48.07,3.48-.05,4.24-1.26s-.1-2.24.65-3.15c1-1.19,3.5-.63,5.08-.26,5.38,1.26,7,3.92,8.88,3S636.42,50.2,638,50c1.22-.12,2,1.68,2.89,1.36.69-.25.37-1.46,1-2.85,1-2.08,2.95-2,4.35-3.58.87-1,1.7-2.79,1.12-6.44,1.19,1.74,2.73,3.63,3.8,3.3,1.36-.42,1.29-4.27,1.18-8.83-.19-7.47-.38-13.89-.54-19l7,30.2a10.17,10.17,0,0,1,1.57-5.47c2.63-4,6.88-3.49,10.46-6.69,2.66-2.37,3-5.08,4.49-11.1C676.47,16,678.37,9,681.37.44q-1,8.58-2.2,17.48-.9,6.52-1.9,12.84c.77,6.09,1.24,6.16,1.24,6.16.61.09,1.21-1.94,2.11-3.83A22.74,22.74,0,0,1,688,24.55a67.88,67.88,0,0,0-3.36,8.09c-3.2,9.39-2,12.8-1.55,14,.21.51,1.3,3.11,2.75,3.09.93,0,1.63-1.1,2.3-2.15a11.61,11.61,0,0,0,1.69-4.46c-.12.67-1.53,9.11,2,11,.91.49,2.65.83,10.93-4.19a116.73,116.73,0,0,0,11.35-7.81c-5.59,5.73-9.7,10-11.1,11.5-.18.19-.85.91-1.64,1.93a9.66,9.66,0,0,0-1.74,2.59c-.54,2.35,3.58,5.75,7.68,7.28a16.45,16.45,0,0,0,5.39.9c4.36.13,5.68-1.24,8.78-.69,2.73.48,2.69,2.28,5.44,2.77,2.07.37,3.46-.25,5.53-.82,3.14-.86,3.59-.43,10.61-1.08,3-.27,7.25-.75,12.59-1.65a50.91,50.91,0,0,1-17.65,5c-3.43.29-8,.28-8.33,1.66-.17.8,1.18,1.77,2.33,2.45a21.24,21.24,0,0,0-9.16.4c-2.07.57-5.43,1.86-5.29,2.84.07.53,1.17,1,3.9,1.25A6.48,6.48,0,0,1,719.55,80c-1.82,1-3.52.73-4.86.74-3.9,0-8.41,2.67-8.6,5.1-.15,1.86,2.25,3.47,3.77,4.5a13.72,13.72,0,0,0,3.7,1.75c1-.28,3.21.51,3.57.64a15.25,15.25,0,0,1-3.57-.64.65.65,0,0,0-.39.25c-.5.79,1.52,2.88,2.12,3.5a16.74,16.74,0,0,0,2.34,2,9.8,9.8,0,0,0,.75-1.63,15,15,0,0,1,.74-4.14,13.63,13.63,0,0,1-.74,4.14,7.49,7.49,0,0,0,.3,2.31,26.17,26.17,0,0,0,9.26,3.32c-1.94.07-3.74.08-5.39,0,.95.32,2.1.62,3.53,1,2.47.65,4,.76,4.27,1.73a2.55,2.55,0,0,1-1.06,2.39c-1.72,1.42-3.84,0-5.09.85s-1.6,3.32.83,11a18.6,18.6,0,0,1,5.31-4.45,19.07,19.07,0,0,1,3.08-1.35,35.62,35.62,0,0,0,9.55-5.46c-.56.5-4.14,3.81-3.26,6.84.61,2.12,3.52,1.76,4.73,4,2.1,3.8-3.38,9.92-2.37,10.72.82.66,4.3-3.63,10.63-6.61a31.26,31.26,0,0,1,6.69-2.26,71.8,71.8,0,0,1-6.36,5.69c-3.13,2.48-4.6,3.23-4.79,4.73-.09.74,0,3.1,5.81,6.46a7.48,7.48,0,0,1,4,.24,7.93,7.93,0,0,1,4.47,4.28,53.89,53.89,0,0,0-8.58,4c-3.91,2.25-6.89,4-6.84,6.24C747.09,153.25,748.34,154.27,749.54,155.21Zm165.4,102.13c-1.18-6-2.78-7.59-4.06-7.82-1.61-.29-2.65,1.5-5.5,2.32a11.47,11.47,0,0,1-7.17-.5c1.06-1,2.3-2.57,2.17-4.35-.2-2.66-3.36-3.9-6.31-6.59a23.06,23.06,0,0,1-6.31-10.21,37.06,37.06,0,0,0,40.14,16.05c-7,2.11-8.87,4.53-9.19,6.45-.52,3,2.76,5.33,6.74,10.79a54.59,54.59,0,0,1,7,12.89ZM1017.18,66.22c-7.7,4.26-12,2.71-17.19,7.4-1.48,1.33-1.83,2.06-4.89,4.89C993,80.42,992,81.21,990.87,83c-.73,1.17-2.28,3.68-1.35,5.32.41.73,1.12.94,3.5,1.71s4.17,1.36,5.38,1.77c-1.9-.42-9.79-2.08-10.54-.24-.57,1.39,3.23,4.23,5.36,5.7-1.6.72-2.76,1.52-2.73,2.37.05,1.47,3.66,2.1,9.95,4.34,6,2.13,11,4.53,11,4.79s-2.31-.54-4.43-1.06c-5.79-1.41-6-1.57-6.79-1.48-4,.44-4.05,4.63-8,5.36s-6-2.83-8.57-1.39c-1.77,1-1.47,3.17-3.73,4.22a6.6,6.6,0,0,1-3.47.29c-4-.11-8.85,3.58-10.7,8.46a13.54,13.54,0,0,0,2.49,13.47,14.15,14.15,0,0,1-3.26-3c-2.22-2.84-2.32-5.3-3.89-5.58-1.39-.25-2,1.54-3.48,1.28-1.94-.34-2.4-3.64-3.59-3.49-1,.12-1.78,2.4-1.78,2.4s-2.34-2.55-3.51-2.39c-2.21.3-2.54,10.31-2.58,11.48a129.11,129.11,0,0,1-5,30.45c.51-6.14.87-12.52,1.07-19.11-5.53,1.69-10.2,3.16-13.76,4.29-4.81,1.54-7.75,2.51-7.65,3.23.07.49,1.52.71,3.28.82.64,0,1.29,0,2,.07-.67,0-1.34,0-2-.07a28.32,28.32,0,0,0-7.48.94c-5.85,1.57-14.88,6-15,11.51-.05,1.73.81,3.19-.18,4.81-1.19,2-3.67,1.85-3.77,3-.13,1.45,3.64,2,4,4.33.23,1.52-1.21,2.25-.93,3.36s1.81,2.08,7.86,2.39a26.57,26.57,0,0,1-8,0c-3.11-.48-5.2-1.39-6.82-.2-1,.75-.72,1.53-2.08,2.84-1.75,1.69-3.33,1.45-3.61,2.24s.87,2.59,8.2,6.86c-.86-.27-2.24-.72-3.9-1.38-4.48-1.8-6-3.14-6.73-2.55-1,.79.39,4.21,1.58,6.26s2.06,2.38,3.06,3.94c2,3.08,1,5.54,1.43,9.5.38,3.11,2,5.86,5.13,11.35a74.89,74.89,0,0,0,7.93,11.21A36.83,36.83,0,0,1,895,225.89c-1.7-3.24-3.24-7.51-7.71-10.79a18.65,18.65,0,0,0-3.27-1.93l1,2,1.27,2.5a32.49,32.49,0,0,1-4.72-4.32c-3.64-4.07-3.32-5.81-5.86-7.59-3.49-2.44-9.36-2.84-11.78,0a5.81,5.81,0,0,0-1.22,3.71c-1.92-1.08-4.56-2.19-6.43-1.12-1.6.91-1.42,2.73-2.79,6.16-1.7,4.26-3.2,4.53-5.47,8.84a31.49,31.49,0,0,0-3.08,9.05,29.62,29.62,0,0,1-.83-6.55c-.11-8.09,3.23-11.05,1.18-15.5-1-2.14-2.35-2.72-3.44-6-.76-2.33-.35-2.85-1.2-4.16-1.48-2.28-3.3-1.58-6.13-4.13-2.22-2-1.84-3.12-3.47-3.74s-3.51.09-6.64,1.5a32.94,32.94,0,0,0-6,3.49,11.09,11.09,0,0,1,3.56-5c.55-.41,1.31-.88,1.27-1.5-.07-1-2.34-1.09-2.61-2.23-.35-1.49,3.24-2.72,3-4.74a2.75,2.75,0,0,0-1.83-2.07c-.42-.14-.78-.11-2.87.22,1.8-2,1.93-2.13,2.28-2.44,1.4-1.26,2-1.25,2-1.72.07-1-2.58-2.11-4.43-2.57a15.36,15.36,0,0,0-8.49.42,30.08,30.08,0,0,1,3.08-2.54c1.49-1.07,2.21-1.38,2.43-2.2a3.5,3.5,0,0,0-1.27-3c-1.28-1.21-3.42-1.22-7.65-1.18-7.44.06-7.77.07-8.64.12-1.38.07-2.64.16-3.77.25s-2.19.22-3.38.3c.91-.09,2.05-.2,3.38-.3a69.66,69.66,0,0,0,9.78-1.77c3.43-.89,3.16-1.11,5.43-1.53,6.44-1.18,10.45.24,12.23-2.16a2.31,2.31,0,0,0,.51-1.87c-.31-1-1.78-1.54-3.73-1.51a6,6,0,0,0,3.05-2.06c2.26-3,1.08-8.79-3.38-13.94a18.64,18.64,0,0,0,4.57,2.92,18.39,18.39,0,0,0,2.13.8c.9-1.42,2.12-3.44,3.45-5.95,2.52-4.77,3.78-7.16,4.39-10.32a24.41,24.41,0,0,0-.51-10.84,24.78,24.78,0,0,0-3.67-7.76l-.92-1.23c.28.35.59.76.92,1.23,1.19,1.57,2.79,3.56,4.8,5.81a30.38,30.38,0,0,1,2.2,2.43c2.57,3.84,2,8.36,4.34,10.79.25.27.6.57,1,.51.63-.1,1-1.2,1.45-3.5.26-1.26.6-3,.9-5.16,0,6.7,1.56,7.52,2,7.68,2.45.8,6.53-5.37,8.5-8.34,2.34-3.53,3.83-5.78,4.51-9.25.71-3.64-.14-5.18.37-11.36.21-2.48.53-4.51.78-5.84a45.88,45.88,0,0,1,1.24,9.82c.16,8.76-2.29,14.49.69,17,1.39,1.18,2.17.13,4.55,1.62,3.05,1.92,2.6,4.17,5.71,6.34,1,.68,3.21,2.24,5.73,1.58a6.13,6.13,0,0,0,3.57-2.88,4.13,4.13,0,0,1,.35-.63c-.06.13-.18.36-.35.63a3.48,3.48,0,0,0,.26,3.51,3.52,3.52,0,0,0,3.34,1.21c1.51-.25,1.56-1.34,3.27-2.15,2-.93,2.85.06,5.24-.57,1.27-.34,1.8-.83,4.25-2.6,1.38-1,3.39-2.41,5.93-4.07a92,92,0,0,0-8.83,10.34c-3.38,4.62-4.28,6.79-3.52,8.07s2.81.45,4.62,2.24c.71.7,1.22,2.6,2.23,6.38s1.13,4.27,1.73,4.73c.79.6,2.6,1.21,7.12-1.07-1,1.86-.89,2.55-.62,2.82.65.66,2.71-.8,6.34-2a35,35,0,0,1,5.45-1.18c3.06-.54,9.58-1.93,24.25-5.5,0-.56,0-1.11.05-1.67q.09-3.77.1-7.44a6.06,6.06,0,0,1-2.86-3.76c-.31-1.83.75-3.34.61-3.42s-1.64,1.91-8,12.28c.52-1.36,1.24-3.28,2.08-5.6,1.39-3.83,1.81-5.16,1.32-6.68-.42-1.3-1-1.14-1.84-2.63-2.25-3.89,0-7.74-1.82-8.87-1.12-.71-2.14.71-3.93,0s-1.58-2.61-3.32-3.44c-1.27-.6-2.73-.11-5.59.91a35.79,35.79,0,0,0-5.76,2.64,20.41,20.41,0,0,1,1.72-2.82c2.19-3,3.49-3.06,3.94-4.59.73-2.54-1.74-6.2-4.62-7.6-1.83-.89-2.71-.33-4.77-1.5a11,11,0,0,1-3.57-3.51c-1.53-2-5.05-3.91-13.91-3.42a57.65,57.65,0,0,1,10.34-1.69c3.71-.26,6.29-.06,6.89-1.36s-.88-3-2.09-4.3q3.35-.92,3.52-2.23.28-2.24-8.77-5.63c3.32-.25,4.08-.68,4.12-1,.07-.66-2.3-.84-4.21-3.05-1.28-1.48-.82-2.11-1.9-3.05-2.41-2.1-6.74-.75-6.93-.69-3.09,1-3.61,3-5.08,2.63-1.82-.45-1.45-3.58-4.16-5.51a7.76,7.76,0,0,0-4-1.23c-3.05-.33-6.78-.82-11.27-1.45-.58.66-1.21,1.35-1.94,2.06A35,35,0,0,1,859.81,76c2.58-2.9,4.65-5.45,6.24-7.51l-1.33-.19h1.47l.72-.94c1.09-1.45,2.22-3,1.71-4.32s-2.32-1.16-3.36-3c-.61-1.09-.29-1.68-.65-3.13a8.89,8.89,0,0,0-3-4.51c.82.37,2.1,1,3.65,1.77,1.86,1,2.29,1.28,3,1.14,1.46-.29,2.53-2.32,2.48-4a4.87,4.87,0,0,0-.4-1.61,28.87,28.87,0,0,1-1.26-5,18.86,18.86,0,0,0,4,7.62,18.66,18.66,0,0,0,8.63,5.56,18.32,18.32,0,0,0,8.68.38c-.49.19-4.2,1.71-4.1,3.66a2.7,2.7,0,0,0,1.28,1.82,47.18,47.18,0,0,0,12.68,6.12,18.7,18.7,0,0,1,2.13.89c.4-.52.19-1.15.71-1.59,1.06-.89,3.56.32,5.8,1.71.11.07-1.62-1.45-7.3-5.5a56.1,56.1,0,0,0,6.54,2.11c2.48.64,3.72,1,4.74.84,3.61-.4,7.3-4,8-8.35a10.14,10.14,0,0,0-.78-5.66,6.29,6.29,0,0,1-1-1.85,11.75,11.75,0,0,1,1,1.85,2.79,2.79,0,0,0,2.58,1.32c1.08-.26,1.55-1.72,1.62-2,.77-2.45-1.31-4.74-1.5-4.94a15.87,15.87,0,0,0,.39-2.58,18.11,18.11,0,0,0-1.43-8,79.3,79.3,0,0,1-3.3-12c1.75,3.7,4.19,8.67,7.34,14.46,4,7.35,5.23,8.89,7.06,9.12,3.78.49,7.69-4.86,11.57-10.16A56.09,56.09,0,0,0,948.59,33a14.17,14.17,0,0,0-.16,7c.26,1.12,1.22,4.52,2.19,4.46s1.54-3.3,2.41-12.05c.79-7.9,1.18-11.85,1.4-17.8A230.52,230.52,0,0,1,957-12c.29,19.13-.28,30.41-1.52,36.09-.33,1.5-1.57,6.62,1,9a4.7,4.7,0,0,0,2.35,1.12,15.82,15.82,0,0,0,1.4,5.24c1.26,2.71,2.26,2.75,3.42,5.22,1.71,3.67.36,5.41,2.11,7.08a6.13,6.13,0,0,0,5.66,1.08c2.69-.76,4.05-3.17,5.24-5a61.28,61.28,0,0,1,9.5-11.47,44.05,44.05,0,0,1-4.73,9.06c-2.68,3.93-5.14,6.17-4.62,6.91.32.45,1.75.38,6.67-2a9.12,9.12,0,0,0-5.33,8.19c.07,2.43,1.32,6,4.45,7a6.72,6.72,0,0,0,4.81-.37,5.41,5.41,0,0,0-2.74,4,5.06,5.06,0,0,0,3.79,5.2c1.79.32,2.42-1.18,6.16-3.16,4.65-2.47,6.76-1.78,8.14-3.85a5.16,5.16,0,0,0,.8-2.84,8.2,8.2,0,0,1-.68-3.92,11.84,11.84,0,0,1,.68,3.92,3.41,3.41,0,0,0,1.11,1.28c1.58,1.06,3.7.33,5.18-.17,3.73-1.25,8.28-2.7,14.37-4.5A35.2,35.2,0,0,1,1017.18,66.22Z"/><path class="cls-1" d="M646.83,126.9c-.29-.1-.92.62-2.22,3.23.63-.07,1.42-.2,2.32-.39C646.86,128.22,647.19,127,646.83,126.9Z"/></g><g id="Layer_4" data-name="Layer 4"><path class="cls-1" d="M610.69,193.49a2.72,2.72,0,0,1-1.15-1.07,3.67,3.67,0,0,1,.77-4.06c1.93-1.83,4.91,1,8.69-.42,2.54-.93,3.89-3.17,4.88-4.82,2.33-3.86,1.26-6.11,3.35-9.87a15,15,0,0,1,4.41-4.87,4.43,4.43,0,0,1-2.55-1.49,5.18,5.18,0,0,1-.93-3.36c0-1.89.67-2.21.42-3.42s-1.19-1.47-2.4-3-1.69-3.32-2.25-5.7a21.82,21.82,0,0,1-.57-5.15c-3.32,1.65-5.51,1.47-6.92,1-3.12-1.1-3.05-4-6.63-5.06-1.29-.38-1.52-.06-5.9-.66-1.36-.18-2.47-.37-3.22-.5a10.59,10.59,0,0,1-4.07,4.32c-1.38.78-3.06,1.15-6.43,1.89-1.23.27-2.25.46-2.94.58a23.19,23.19,0,0,1-5.48,12.07,7.42,7.42,0,0,1,1.95,2.78c1,2.51,0,4.52-1,10.29-.27,1.6-.45,2.89-.54,3.6a10.41,10.41,0,0,1,4.91,7,9.21,9.21,0,0,1,6.29-.36c3.07,1.08,3.86,3.79,6.43,6.19C601.74,191.17,605,193.09,610.69,193.49Z"/><path class="cls-1" d="M234.08,270.89a20.88,20.88,0,0,1-2.36,6.8c-.83,1.48-1.35,1.94-1.3,2.87.09,1.71,2,3,3.67,3.82-1.84-.66-4.37-1.23-6.23,0-.68.45-.79.82-1.44,1.56-1.57,1.78-3.18,2.15-7.72,3.86-5.15,1.94-4.46,2-6.21,2.4-2.4.58-4.69,1.14-7.33.41-1.87-.52-1.74-1.08-4.84-2.29s-3.21-.65-4.86-1.58c-2.6-1.47-2.76-3.13-4.9-3.73a5.87,5.87,0,0,0-3.57.25,8.06,8.06,0,0,0,.89-5.28c-.38-1.74-1.23-2.08-2.65-4.78-.82-1.56-2.81-5.35-1.52-6.82a2.36,2.36,0,0,1,1.86-.62,4.47,4.47,0,0,1-1.48-1.84c-.48-1.15-.26-2.17.15-3.91,1.52-6.47,1.74-6.84,2.17-7.27,1-.95,1.79-1.06,2.79-2.48.44-.62,1.26-2,1.26-2h0l2.12.18.05-2.14,2.37-1.4c4.89-2.89,4.69-2.82,5-3a21.16,21.16,0,0,1,8-2.22,19.92,19.92,0,0,1,4.35.25,24.3,24.3,0,0,1,6.2,1.85,28.31,28.31,0,0,1,5,2.75c1.29.89,1.74,1.35,2.59,1.46,1.69.22,3.28-1.16,4.38-2.41-2.38,2.7-2.51,4.2-2.19,5.07.18.47.42.57,1.25,1.73a23.65,23.65,0,0,1,1.78,2.92,30.46,30.46,0,0,1,2.6,7.5c0,.23.23,1.21.33,2.33A21.59,21.59,0,0,1,234.08,270.89Z"/><path class="cls-1" d="M350.38,250.39a20.88,20.88,0,0,1-2.36,6.8c-.83,1.48-1.35,1.94-1.3,2.87.09,1.71,2,3,3.67,3.82-1.84-.66-4.37-1.23-6.23,0-.68.45-.79.82-1.44,1.56-1.57,1.78-3.18,2.15-7.72,3.86-5.15,1.94-4.46,2-6.21,2.4-2.4.58-4.69,1.14-7.33.41-1.87-.52-1.74-1.08-4.84-2.29s-3.21-.65-4.86-1.58c-2.6-1.47-2.76-3.13-4.9-3.73a5.87,5.87,0,0,0-3.57.25,8.06,8.06,0,0,0,.89-5.28c-.38-1.74-1.23-2.08-2.65-4.78-.82-1.56-2.81-5.35-1.52-6.82a2.36,2.36,0,0,1,1.86-.62,4.47,4.47,0,0,1-1.48-1.84c-.48-1.15-.26-2.17.15-3.91,1.52-6.47,1.74-6.84,2.17-7.27,1-.95,1.79-1.06,2.79-2.48.44-.62,1.26-2,1.26-2h0l2.12.18.05-2.14,2.37-1.4c4.89-2.89,4.69-2.82,5-3a21.16,21.16,0,0,1,8-2.22,19.92,19.92,0,0,1,4.35.25,24.3,24.3,0,0,1,6.2,1.85,28.31,28.31,0,0,1,5,2.75c1.29.89,1.74,1.35,2.59,1.46,1.69.22,3.28-1.16,4.38-2.41-2.38,2.7-2.51,4.2-2.19,5.07.18.47.42.57,1.25,1.73a23.65,23.65,0,0,1,1.78,2.92,30.46,30.46,0,0,1,2.6,7.5c0,.23.23,1.21.33,2.33A21.59,21.59,0,0,1,350.38,250.39Z"/><path class="cls-1" d="M381.51,295.06a20.88,20.88,0,0,1-6.31,3.48c-1.61.54-2.31.54-2.88,1.26-1.07,1.33-.49,3.58.18,5.3-.93-1.72-2.43-3.83-4.64-4.16a6.9,6.9,0,0,0-2.11.2c-2.35.27-3.8-.52-8.32-2.29-5.13-2-4.64-1.51-6.23-2.36-2.17-1.17-4.25-2.29-5.72-4.59-1-1.63-.58-2-2.07-4.94s-2-2.63-2.56-4.42c-1-2.84,0-4.17-1.15-6a5.87,5.87,0,0,0-2.82-2.2,8.06,8.06,0,0,0,4.19-3.33c.89-1.55.47-2.37,1.22-5.33.43-1.71,1.48-5.86,3.42-6.09a2.36,2.36,0,0,1,1.79.78,4.47,4.47,0,0,1,.13-2.36c.41-1.18,1.26-1.78,2.72-2.81,5.46-3.8,5.87-3.93,6.47-4,1.34-.07,2,.4,3.73,0,.74-.17,2.27-.64,2.27-.64h0l1.46,1.55,1.47-1.56,2.7.54c5.57,1.12,5.37,1,5.72,1.15a21.16,21.16,0,0,1,7.43,3.68,19.92,19.92,0,0,1,3.07,3.09,24.3,24.3,0,0,1,3.38,5.52,28.31,28.31,0,0,1,1.86,5.37c.37,1.52.39,2.16,1,2.82,1.12,1.29,3.21,1.33,4.87,1.14-3.58.41-4.67,1.44-5,2.31a10.59,10.59,0,0,0-.23,2.12,23.65,23.65,0,0,1-.63,3.36,30.46,30.46,0,0,1-3.08,7.32c-.12.2-.64,1.05-1.31,2A21.59,21.59,0,0,1,381.51,295.06Z"/><path class="cls-1" d="M416.36,265.37a20.88,20.88,0,0,1-5.75-4.34c-1.15-1.25-1.43-1.88-2.33-2.12-1.65-.43-3.47,1-4.76,2.32,1.2-1.55,2.51-3.78,1.91-5.93a6.9,6.9,0,0,0-1-1.85c-1.21-2-1.07-3.68-1.31-8.53-.27-5.5-.52-4.85-.38-6.65.18-2.46.36-4.82,1.86-7.1,1.06-1.62,1.56-1.33,3.66-3.9s1.61-2.86,3-4.14c2.2-2,3.83-1.66,5-3.52a5.87,5.87,0,0,0,.86-3.48,8.06,8.06,0,0,0,4.75,2.47c1.78.18,2.36-.53,5.36-1.06,1.74-.3,6-1,7,.64a2.36,2.36,0,0,1,0,2,4.47,4.47,0,0,1,2.2-.85c1.24-.1,2.14.42,3.67,1.34,5.7,3.43,6,3.75,6.25,4.29.61,1.2.46,2,1.51,3.41.46.61,1.51,1.81,1.51,1.81h0l-.82,2,2,.7.61,2.69c1.25,5.54,1.24,5.33,1.29,5.69a21.16,21.16,0,0,1-.33,8.28,19.92,19.92,0,0,1-1.57,4.07,24.3,24.3,0,0,1-3.66,5.34,28.31,28.31,0,0,1-4.14,3.89c-1.24,1-1.82,1.24-2.18,2-.72,1.55.1,3.47.95,4.91-1.84-3.1-3.22-3.68-4.15-3.64a10.59,10.59,0,0,0-2,.66,23.65,23.65,0,0,1-3.32.8,30.46,30.46,0,0,1-7.94.17c-.23,0-1.22-.15-2.32-.4A21.59,21.59,0,0,1,416.36,265.37Z"/><path class="cls-1" d="M606.28,227.45c-2.61-.22-3.05-.94-4.16-.55-.82.29-1.86,1.14-2.58,3.78a5.45,5.45,0,0,0-.84-4c-.6-.82-1.56-1.3-3.45-2.22a24.09,24.09,0,0,0-3.73-1.58,19.09,19.09,0,0,0-6.81-.78,34.85,34.85,0,0,0,.19-4.66c-.09-3.42-.17-6.49-2-7.59a3.26,3.26,0,0,0-1.82-.41,11.82,11.82,0,0,0,.73-3.18,12.33,12.33,0,0,0-.29-3.81,12.65,12.65,0,0,0-1-2.88,7.88,7.88,0,0,1,.8-3.14c.79-1.58,1.69-2,2.3-3.24a6.13,6.13,0,0,0,.18-4.33c2.42-2.06,4.53-3.83,6.22-5.25a36.58,36.58,0,0,1,4.41-3.4,25.46,25.46,0,0,1,5.83-2.71,25.9,25.9,0,0,1,4.09-.9,20.67,20.67,0,0,1,4.08-.24,20.25,20.25,0,0,1,4.44.74,24.09,24.09,0,0,1,3.25,1.21,27.27,27.27,0,0,1,5.7,3.3c2.24,1.7,3.72,2.87,4.3,4.93a6.44,6.44,0,0,1,.22,2,3.06,3.06,0,0,1,2.16.26c.78.46,1,1.22,1.45,2.44a48.38,48.38,0,0,0,2.29,5.16,18.24,18.24,0,0,0,2,3,14.84,14.84,0,0,0-1.3,3.54c-.41,1.82-.18,2.43-.6,4.74a9.35,9.35,0,0,1-1.35,4.13,6.85,6.85,0,0,1-2.68,2.19,4.87,4.87,0,0,1,0,2.58c-.2.7-.64,1.55-3.63,4.09-1.84,1.57-1.85,1.4-2.17,1.8-.91,1.14-1.51,3.36.27,8.15-2-4.1-3.74-5-5-5-.77,0-1.11.36-3.87,1-.83.2-1.69.41-2.81.58A19.62,19.62,0,0,1,606.28,227.45Z"/><path class="cls-1" d="M689.54,172.31a5.62,5.62,0,0,1-1.15-2.48,5,5,0,0,1-2.31-.63c-.76-.44-1.18-1-2.54-3.44-2.1-3.8-2.36-4.8-2.42-5.85a8.38,8.38,0,0,1,.11-1.9q-1-1-2-2.14-1.66-1.87-3.12-3.69a19.13,19.13,0,0,1,1.13-3.07c.79-1.69,1.44-2.42,1.92-3.33.72-1.36,1-2.1.84-2.84-.31-1.47-2.07-2.18-2.52-2.35l2.37-1c.85-.68,2-1.64,3.32-2.86s2.05-2,3.05-3.06c.85-.89,2-2.08,3.22-3.53a7,7,0,0,0,3.86-3.71,11.92,11.92,0,0,0,3.52.37,12.56,12.56,0,0,0,4.83-1.26,12.92,12.92,0,0,0,3.1-2.11,39.25,39.25,0,0,1,4.89,2.36c1.55.88,2.19,2,3.84,2.32,1.21.22,1.48-.18,2.47.2,1.35.52,1.5,1.51,2.83,2.09a4.43,4.43,0,0,0,2.46.28,8.67,8.67,0,0,0,.08,3c.32,1.55.6,4.21,2.15,4.86s3.15-.83,3.42-.43-2.19,1.72-2.3,3.79c-.08,1.48,1.14,2.74,2.37,4.16a11.31,11.31,0,0,0,2.41,2.09c-.1.58-.27,1.44-.51,2.48-.31,1.35-.5,2-.81,3.23a31.52,31.52,0,0,0-.83,3.76,10.18,10.18,0,0,0,.91,5.11,5.46,5.46,0,0,0-2.95-.43c-.53.07-2.23.31-2.88,1.52-.38.7-.06,1.11-.34,1.93a3.88,3.88,0,0,1-2.26,2.08,6.26,6.26,0,0,1-2.51,3.5c-1,.63-1.83.63-2.59,1.48a4.23,4.23,0,0,0-.94,2.8,2.37,2.37,0,0,0-.89-1.21,3.27,3.27,0,0,0-4.05,1c-.55.81-.23,1.47-.86,1.94s-1.18.27-2.19.12c-2.9-.43-1.91,0-4.27-.47a35.19,35.19,0,0,1-4.28-1,38.34,38.34,0,0,1-3.87-1.43C690.39,173.26,689.8,172.63,689.54,172.31Z"/><path class="cls-1" d="M168.42,97.09a5.62,5.62,0,0,1-1.15-2.48A5,5,0,0,1,165,94c-.76-.44-1.18-1-2.54-3.44-2.1-3.8-2.36-4.8-2.42-5.85a8.38,8.38,0,0,1,.11-1.9q-1-1-2-2.14Q156.49,78.79,155,77a19.13,19.13,0,0,1,1.13-3.07c.79-1.69,1.44-2.42,1.92-3.33.72-1.36,1-2.1.84-2.84-.31-1.47-2.07-2.18-2.52-2.35l2.37-1c.85-.68,2-1.64,3.32-2.86s2.05-2,3.05-3.06c.85-.89,2-2.08,3.22-3.53a7,7,0,0,0,3.86-3.71,11.92,11.92,0,0,0,3.52.37,12.56,12.56,0,0,0,4.83-1.26,12.92,12.92,0,0,0,3.1-2.11,39.25,39.25,0,0,1,4.89,2.36c1.55.88,2.19,2,3.84,2.32,1.21.22,1.48-.18,2.47.2,1.35.52,1.5,1.51,2.83,2.09a4.43,4.43,0,0,0,2.46.28,8.67,8.67,0,0,0,.08,3c.32,1.55.6,4.21,2.15,4.86s3.15-.83,3.42-.43-2.19,1.72-2.3,3.79c-.08,1.48,1.14,2.74,2.37,4.16a11.31,11.31,0,0,0,2.41,2.09c-.1.58-.27,1.44-.51,2.48-.31,1.35-.5,2-.81,3.23a31.52,31.52,0,0,0-.83,3.76,10.18,10.18,0,0,0,.91,5.11,5.46,5.46,0,0,0-2.95-.43c-.53.07-2.23.31-2.88,1.52-.38.7-.06,1.11-.34,1.93a3.88,3.88,0,0,1-2.26,2.08,6.26,6.26,0,0,1-2.51,3.5c-1,.63-1.83.63-2.59,1.48a4.23,4.23,0,0,0-.94,2.8,2.37,2.37,0,0,0-.89-1.21,3.27,3.27,0,0,0-4.05,1c-.55.81-.23,1.47-.86,1.94s-1.18.27-2.19.12c-2.9-.43-1.91,0-4.27-.47a35.19,35.19,0,0,1-4.28-1,38.34,38.34,0,0,1-3.87-1.43C169.28,98,168.69,97.41,168.42,97.09Z"/><path class="cls-1" d="M972.07,91.86c.32,1.29-.39,2.76-1.2,4.41-.47,1-.73,1.28-.69,1.86a3.26,3.26,0,0,0,1.64,2.23,3.81,3.81,0,0,0-2.76,0c-1.25.56-1.21,1.62-3,3.42a22.71,22.71,0,0,1-2.44,2,23.82,23.82,0,0,1-3,2.11c-2.7,1.43-4.22.64-5.53,2a4.23,4.23,0,0,0-1,2.47,1.87,1.87,0,0,0-.64-1.33c-1.23-1-3.12,1-7.09,1.25a18,18,0,0,1-3.48-.2,21.07,21.07,0,0,1-2.87-.64c-.84-.24-1.46-.48-1.62-.54-2.47-.93-2.49-1.52-4.33-2.13-1.57-.53-2.31-.35-2.71-1a2.47,2.47,0,0,1,.17-2.18,2.07,2.07,0,0,1-1.5.15c-.48-.17-.68-.52-1.43-1.43s-.49-.52-1.28-1.46a25.07,25.07,0,0,1-1.78-2.33c-.15-.23-.59-.9-1.08-1.82-.25-.47-.43-.84-.82-1.69-.68-1.49-1-2.13-1.15-2.55A16.67,16.67,0,0,0,920.32,91a5.23,5.23,0,0,0,.83-2.44c.07-1.05-.27-1.4-.29-2.76a8.08,8.08,0,0,1,.35-2.54c.51-1.61,1.2-1.67,1.74-3,.63-1.62-.17-2,.27-3.85.4-1.7,1.18-2,2.39-4.24a18.21,18.21,0,0,0,1.53-4,2.67,2.67,0,0,0,1.72.22c1.29-.31,1.55-1.62,3-2.17a3.53,3.53,0,0,1,1.95-.14,8.13,8.13,0,0,1,2.69-2.71A11.29,11.29,0,0,1,940,62.12c1.88-.44,2.38-.33,3.92-.71a17.12,17.12,0,0,0,3.46-1.26,7.49,7.49,0,0,0,2.73,1.36c.69.18,1,.14,2.26.43.85.2,1.48.4,2,.55a11.77,11.77,0,0,1,2.79,1.08A5.74,5.74,0,0,1,959,65.65a3.35,3.35,0,0,1,2,.07c.32.12.55.28,1.83,1.4.82.71,1.22,1.07,1.4,1.25,1.49,1.46,1.33,1.81,2.08,2.24,1.3.74,2.59.17,2.73.6s-1.94,1.6-1.79,1.95,1.06,0,2.1-.25a3.65,3.65,0,0,0-.52,1.75c0,1.22.66,1.66,1.26,3.07.94,2.21.12,3.12,1.11,4.51a4.48,4.48,0,0,0,2.24,1.57A6,6,0,0,1,970.62,90,3.27,3.27,0,0,1,972.07,91.86Z"/><path class="cls-1" d="M285.08,27.8c1.31.22,2.36,1.47,3.55,2.87.7.83.87,1.18,1.42,1.38a3.26,3.26,0,0,0,2.7-.6A3.81,3.81,0,0,0,291.66,34c0,1.37,1,1.76,1.94,4.08a22.71,22.71,0,0,1,.86,3,23.82,23.82,0,0,1,.73,3.56c.22,3-1.11,4.12-.37,5.89a4.23,4.23,0,0,0,1.84,1.95,1.87,1.87,0,0,0-1.47,0c-1.38.74-.31,3.28-1.72,7a18,18,0,0,1-1.59,3.11A21.07,21.07,0,0,1,290.14,65c-.56.67-1,1.14-1.15,1.27-1.85,1.88-2.39,1.66-3.7,3.1-1.12,1.23-1.25,2-2,2.07a2.47,2.47,0,0,1-1.92-1,2.07,2.07,0,0,1-.47,1.43c-.35.38-.75.41-1.88.73s-.67.24-1.85.58a25.07,25.07,0,0,1-2.85.69c-.27,0-1.06.18-2.1.25-.53,0-.94.05-1.88.06-1.64,0-2.34,0-2.8,0a16.67,16.67,0,0,0-4.15.62,5.23,5.23,0,0,0-1.9-1.75c-.94-.49-1.39-.32-2.64-.85a8.08,8.08,0,0,1-2.18-1.35c-1.27-1.12-1-1.78-2.07-2.81-1.22-1.23-1.88-.64-3.42-1.8s-1.31-1.87-2.91-3.9a18.21,18.21,0,0,0-3-3,2.67,2.67,0,0,0,.9-1.49c.24-1.3-.86-2.08-.79-3.58a3.53,3.53,0,0,1,.66-1.84,8.13,8.13,0,0,1-1.39-3.55,11.29,11.29,0,0,1,.32-3.76c.36-1.9.66-2.31.93-3.88a17.12,17.12,0,0,0,.24-3.67,7.49,7.49,0,0,0,2.35-1.95c.44-.56.54-.88,1.3-1.89.53-.7,1-1.2,1.29-1.57A11.77,11.77,0,0,1,253.17,30a5.74,5.74,0,0,1,2.66-.88,3.35,3.35,0,0,1,.88-1.83,6.79,6.79,0,0,1,2-1.11c1-.46,1.47-.69,1.71-.78,1.94-.78,2.19-.48,2.89-1,1.2-.89,1.2-2.3,1.65-2.26s.68,2.42,1.06,2.42.45-1,.62-2a3.65,3.65,0,0,0,1.4,1.18c1.1.51,1.79.07,3.32.09,2.4,0,2.91,1.15,4.58.8a4.48,4.48,0,0,0,2.34-1.41,6,6,0,0,1,4.5,5.11A3.27,3.27,0,0,1,285.08,27.8Z"/><path class="cls-1" d="M55.79,200.7a21.69,21.69,0,0,1-3.43,9.57c-1.13,1.75-1,1-5,6.07-1.67,2.1-1.92,2.52-2.78,3.09-1.87,1.24-3.31,1-6.52,2A27.08,27.08,0,0,0,33.94,223c-1.6-.11-4-.29-7.07-.55-3.59-.31-5.52-.51-6.59-2a3.84,3.84,0,0,1-.66-1.57,2.77,2.77,0,0,0-3.37,1.79,6.15,6.15,0,0,0-1.32-3.53,7,7,0,0,0-1.26-1.09,14.38,14.38,0,0,1-4.29-5c-.65-1.43-.63-2.42-1.41-2.67a1.91,1.91,0,0,0-1.57.41,6,6,0,0,0,.4-2.52c-.09-1.34-.61-1.93-1.12-3.28a14.73,14.73,0,0,1-.74-4.84,24,24,0,0,1,.2-4.68A21.78,21.78,0,0,1,9,183.87c1.72-2.34,2.39-2.17,5.69-6.06,1.31-1.54,2.3-2.87,2.93-3.74a3.12,3.12,0,0,0,2.3.71,2.86,2.86,0,0,0,1.2-.46,3.52,3.52,0,0,0,1.41-1.95,4.28,4.28,0,0,0,3.41.86c1.16-.29,1.48-1.15,2.81-1.28.9-.09,1.11.27,2.24.36a9.17,9.17,0,0,0,3-.53c3-.51,4.41,2.58,8.64,2.86a9.25,9.25,0,0,0,2.16-.11,6.15,6.15,0,0,0,.87,2.77c1.15,1.86,2.46,1.49,4.2,3.2s2.79,4.59,3.35,6.2a6.4,6.4,0,0,0,1.37,2.53,5.93,5.93,0,0,0,2.23,1.47,3.17,3.17,0,0,0-1.41,1.69,3.25,3.25,0,0,0,.23,2.14C56.21,195.86,56.07,197.48,55.79,200.7Z"/><path class="cls-1" d="M370.59,137.56c-.13,1.19-.3,2.08-.35,2.29a22.38,22.38,0,0,1-1,3.58,23.34,23.34,0,0,1-1.16,2.52c-.1.19-.56,1-1.26,2.11-.24.37-.49.73-.84,1.2-.88,1.16-1.17,1.24-1.38,1.75a2.89,2.89,0,0,0,.18,2.3,5.09,5.09,0,0,0-2.53-.53c-1.69.11-2.74,1.16-3.91,2.05-1.79,1.37-3.48,2-6.87,3.32-4.06,1.56-6.15,1.56-6.89,1.53a10.3,10.3,0,0,1-2.86-.4c-1.65-.5-2-1.11-3.81-1.63a6.9,6.9,0,0,1-1.61-.61l-1-.59-.67-.37a3,3,0,0,0-1.69-.17c-1.17.12-2.42-1.57-5-4.57-2.93-3.47-2.57-2.76-3.33-3.84-1.23-1.74-1.51-2.63-2.61-3a7.19,7.19,0,0,0-3.3.12h0c2.58-1.26,3.05-1.92,3.05-1.92a3.62,3.62,0,0,0,.6-1.85c.37-3.89-2.69-6.26-2.36-10.52.05-.7.22-2.9,1.68-3.63a2.67,2.67,0,0,1,1.71-.18,5.06,5.06,0,0,1-.47-1.88,8.25,8.25,0,0,1,1.95-5,5.07,5.07,0,0,0,1.12-1.72,4,4,0,0,0-.18-2.52,4.57,4.57,0,0,0,2.43-.41c1.14-.56,1.49-1.43,2.16-2.23.81-1,2.5-1.59,5.9-2.82,2.79-1,4.18-1.51,5.58-1.53s1.71.24,3.95.2a22.63,22.63,0,0,1,3.11,0,17.5,17.5,0,0,1,3.09.63,12.41,12.41,0,0,1,1.67.57,18.61,18.61,0,0,1,2,1.14c1.09.61,1.34.58,2.62,1.18a21.88,21.88,0,0,1,2.81,1.58,18.9,18.9,0,0,1,4.38,4.16,12.75,12.75,0,0,1,1.53,2.34c.88,1.8.71,2.7,1.51,3.41.49.43,1.38.82,3.14.52a4.46,4.46,0,0,0-1.21,3.19c.1,1.16.76,1.44.87,3a15.74,15.74,0,0,1-.22,2.5c-.14,1.16-.19,1.15-.29,2.07C370.66,136.15,370.71,136.4,370.59,137.56Z"/><path class="cls-1" d="M679.94,65.86a21.69,21.69,0,0,1,6.58,7.75c1,1.85.35,1.34,2.75,7.4,1,2.5,1.22,2.92,1.29,4,.14,2.24-.77,3.37-1.55,6.64a27.08,27.08,0,0,0-.67,4.32c-.9,1.33-2.27,3.36-4,5.85-2.06,3-3.19,4.53-5,4.72a3.84,3.84,0,0,1-1.69-.21,2.77,2.77,0,0,0-.13,3.81,6.15,6.15,0,0,0-3.71-.62,7,7,0,0,0-1.57.55,14.38,14.38,0,0,1-6.44,1.25c-1.57-.15-2.41-.66-3-.11a1.91,1.91,0,0,0-.43,1.57,6,6,0,0,0-2-1.6c-1.2-.59-2-.43-3.4-.67a14.73,14.73,0,0,1-4.57-1.77,24,24,0,0,1-4-2.51A21.78,21.78,0,0,1,642,98c-1.17-2.65-.69-3.16-2.42-8-.68-1.9-1.34-3.42-1.78-4.41A3.12,3.12,0,0,0,639.59,84a2.86,2.86,0,0,0,.2-1.27,3.52,3.52,0,0,0-1-2.2A4.28,4.28,0,0,0,641.26,78c.33-1.15-.25-1.86.3-3.07.37-.82.79-.83,1.43-1.77A9.17,9.17,0,0,0,644,70.25c1.07-2.88,4.44-2.54,6.79-6.06a9.25,9.25,0,0,0,1-1.92,6.15,6.15,0,0,0,2.84.63c2.18-.07,2.52-1.39,4.87-2s5.37-.13,7,.2a6.4,6.4,0,0,0,2.88.08,5.93,5.93,0,0,0,2.39-1.2,3.17,3.17,0,0,0,.76,2.06,3.25,3.25,0,0,0,2,.87C676,63.09,677.29,64,679.94,65.86Z"/><path class="cls-1" d="M887.63,168.66c-.13,1.19-.3,2.08-.35,2.29a22.38,22.38,0,0,1-1,3.58,23.34,23.34,0,0,1-1.16,2.52c-.1.19-.56,1-1.26,2.11-.24.37-.49.73-.84,1.2-.88,1.16-1.17,1.24-1.38,1.75a2.89,2.89,0,0,0,.18,2.3,5.09,5.09,0,0,0-2.53-.53c-1.69.11-2.74,1.16-3.91,2.05-1.79,1.37-3.48,2-6.87,3.32-4.06,1.56-6.15,1.56-6.89,1.53a10.3,10.3,0,0,1-2.86-.4c-1.65-.5-2-1.11-3.81-1.63a6.9,6.9,0,0,1-1.61-.61l-1-.59-.67-.37a3,3,0,0,0-1.69-.17c-1.17.12-2.42-1.57-5-4.57-2.93-3.47-2.57-2.76-3.33-3.84-1.23-1.74-1.51-2.63-2.61-3a7.19,7.19,0,0,0-3.3.12h0c2.58-1.26,3.05-1.92,3.05-1.92a3.62,3.62,0,0,0,.6-1.85c.37-3.89-2.69-6.26-2.36-10.52.05-.7.22-2.9,1.68-3.63a2.67,2.67,0,0,1,1.71-.18,5.06,5.06,0,0,1-.47-1.88,8.25,8.25,0,0,1,1.95-5,5.07,5.07,0,0,0,1.12-1.72,4,4,0,0,0-.18-2.52,4.57,4.57,0,0,0,2.43-.41c1.14-.56,1.49-1.43,2.16-2.23.81-1,2.5-1.59,5.9-2.82,2.79-1,4.18-1.51,5.58-1.53s1.71.24,3.95.2a22.63,22.63,0,0,1,3.11,0,17.5,17.5,0,0,1,3.09.63,12.41,12.41,0,0,1,1.67.57,18.61,18.61,0,0,1,2,1.14c1.09.61,1.34.58,2.62,1.18a21.88,21.88,0,0,1,2.81,1.58,18.9,18.9,0,0,1,4.38,4.16,12.75,12.75,0,0,1,1.53,2.34c.88,1.8.71,2.7,1.51,3.41.49.43,1.38.82,3.14.52a4.46,4.46,0,0,0-1.21,3.19c.1,1.16.76,1.44.87,3a15.74,15.74,0,0,1-.22,2.5c-.14,1.16-.19,1.15-.29,2.07C887.7,167.24,887.75,167.49,887.63,168.66Z"/></g></svg>